{"title":"SNL-Best of Commercial Parodies(dvdripmp4)","uid":7702389,"size":1346789661,"categoryP":"video","categoryS":"tv_shows","magnet":"?xt=urn:btih:0a5c7573d3cd95211d7d51d3e22b7f2879af8e26&amp;dn=SNL-Best+of+Commercial+Parodies%28dvdripmp4%29&amp;tr=udp%3A%2F%2Ftracker.openbittorrent.com%3A80&amp;tr=udp%3A%2F%2Fopen.demonii.com%3A1337&amp;tr=udp%3A%2F%2Ftracker.coppersurfer.tk%3A6969&amp;tr=udp%3A%2F%2Fexodus.desync.com%3A6969","seeders":1,"leechers":5,"uploader":"russell887","files":2,"time":1349565875,"description":"Since the creation of Saturday Night Live in the 1970s, one of the signatures of the show has been its commercial parodies. From subtle to outrageous, silly to realistic, SNL has always been able to poke fun at the folks on Madison Avenue with a variety of products not actually for sale. Now you can enjoy your favorite commercial parodies that have aired over the past 30 years all on one DVD and hosted by funny man Will Ferrell. Watch classics like &quot;Little Chocolate Donuts,&quot; &quot;Happy Fun Ball,&quot; &quot;Mom Jeans,&quot; &quot;Colon Blow,&quot; &quot;Taco Town,&quot; &quot;Love Toilet,&quot; &quot;Oops I Crapped My Pants&quot; or &quot;Bassomatic&quot; again and again. \n\nINFO: \nFormat : MPEG-4\nFormat profile : Base Media\nCodec ID : isom\nFile size : 1.11 GiB\nDuration : 1h 22mn\nOverall bit rate mode : Variable\nOverall bit rate : 1 908 Kbps\nWriting application : Lavf52.104.0\n\nVideo\nID : 1\nFormat : MPEG-4 Visual\nFormat profile : Simple@L3\nFormat settings, BVOP : No\nFormat settings, QPel : No\nFormat settings, GMC : No warppoints\nFormat settings, Matrix : Default (H.263)\nCodec ID : 20\nDuration : 1h 22mn\nBit rate : 1 775 Kbps\nWidth : 720 pixels\nHeight : 480 pixels\nDisplay aspect ratio : 4:3\nOriginal display aspect ratio : 4:3\nFrame rate mode : Constant\nFrame rate : 29.970 fps\nStandard : NTSC\nColor space : YUV\nChroma subsampling : 4:2:0\nBit depth : 8 bits\nScan type : Progressive\nCompression mode : Lossy\nBits/(Pixel*Frame) : 0.171\nStream size : 1.03 GiB (93%)\nWriting library : XviD 1.2.1 (UTC 2008-12-04)\n\nAudio\nID : 2\nFormat : AAC\nFormat/Info : Advanced Audio Codec\nFormat profile : LC\nCodec ID : 40\nDuration : 1h 22mn\nBit rate mode : Variable\nBit rate : 128 Kbps\nChannel(s) : 2 channels\nChannel positions : Front: L R\nSampling rate : 44.1 KHz\nCompression mode : Lossy\nStream size : 75.9 MiB (7%)\n\nSize: 1.25GB","torrent":{"xt":"urn:btih:0a5c7573d3cd95211d7d51d3e22b7f2879af8e26","amp;dn":"SNL-Best+of+Commercial+Parodies%28dvdripmp4%29","amp;tr":["udp%3A%2F%2Ftracker.openbittorrent.com%3A80","udp%3A%2F%2Fopen.demonii.com%3A1337","udp%3A%2F%2Ftracker.coppersurfer.tk%3A6969","udp%3A%2F%2Fexodus.desync.com%3A6969"],"infoHash":"0a5c7573d3cd95211d7d51d3e22b7f2879af8e26","infoHashBuffer":{"type":"Buffer","data":[10,92,117,115,211,205,149,33,29,125,81,211,226,43,127,40,121,175,142,38]},"announce":[],"urlList":[]}}